<svg width="54" height="54" viewBox="0 0 54 54" fill="none" xmlns="http://www.w3.org/2000/svg">
<path fill-rule="evenodd" clip-rule="evenodd" d="M15.1875 36C16.7408 36 18 34.7408 18 33.1875C18 31.6342 16.7408 30.375 15.1875 30.375C13.6342 30.375 12.375 31.6342 12.375 33.1875C12.375 34.7408 13.6342 36 15.1875 36Z" fill="#8E382B"/>
<path fill-rule="evenodd" clip-rule="evenodd" d="M38.8125 36C40.3658 36 41.625 34.7408 41.625 33.1875C41.625 31.6342 40.3658 30.375 38.8125 30.375C37.2592 30.375 36 31.6342 36 33.1875C36 34.7408 37.2592 36 38.8125 36Z" fill="#8E382B"/>
<path d="M7.875 41.625C6.01104 41.625 4.5 40.114 4.5 38.25V27.7984C4.5 25.2408 5.94547 22.9029 8.23343 21.76L9.0006 21.3767L11.5993 10.2284C12.0742 8.19132 13.89 6.75 15.9818 6.75H38.1311C40.2384 6.75 42.0636 8.21248 42.5229 10.2692L45.0035 21.3767L45.7688 21.7593C48.0555 22.9028 49.5 25.2399 49.5 27.7966V38.25C49.5 40.114 47.989 41.625 46.125 41.625H43.8785V42.75C43.8785 45.2352 41.862 47.25 39.3768 47.25C36.8914 47.25 34.875 45.2352 34.875 42.75V41.625H19.125V42.7503C19.125 45.2355 17.1105 47.25 14.6253 47.25C12.1402 47.25 10.1256 45.2355 10.1256 42.7503V41.625H7.875Z" stroke="#8E382B" stroke-linejoin="round"/>
<path d="M15.75 24.75H38.25L36.3915 16.3869C36.1628 15.3575 35.2497 14.625 34.1952 14.625H19.8048C18.7503 14.625 17.8372 15.3575 17.6085 16.3869L15.75 24.75Z" stroke="#8E382B" stroke-linejoin="round"/>
</svg>
