<svg width="54" height="54" viewBox="0 0 54 54" fill="none" xmlns="http://www.w3.org/2000/svg">
<path d="M15.75 15.3C15.75 13.6846 14.239 12.375 12.375 12.375C10.511 12.375 9 13.6846 9 15.3V38.7C9 40.3154 10.511 41.625 12.375 41.625C14.239 41.625 15.75 40.3154 15.75 38.7V15.3Z" stroke="#8E382B" stroke-linejoin="round"/>
<path d="M45 15.3C45 13.6846 43.489 12.375 41.625 12.375C39.761 12.375 38.25 13.6846 38.25 15.3V38.7C38.25 40.3154 39.761 41.625 41.625 41.625C43.489 41.625 45 40.3154 45 38.7V15.3Z" stroke="#8E382B" stroke-linejoin="round"/>
<path d="M9 21C9 19.3431 7.48896 18 5.625 18C3.76104 18 2.25 19.3431 2.25 21V33C2.25 34.6569 3.76104 36 5.625 36C7.48896 36 9 34.6569 9 33V21Z" stroke="#8E382B" stroke-linejoin="round"/>
<path d="M51.75 21C51.75 19.3431 50.239 18 48.375 18C46.511 18 45 19.3431 45 21V33C45 34.6569 46.511 36 48.375 36C50.239 36 51.75 34.6569 51.75 33V21Z" stroke="#8E382B" stroke-linejoin="round"/>
<path d="M38.25 30.375H15.75V23.625H38.25V30.375Z" stroke="#8E382B" stroke-linejoin="round"/>
</svg>
