<svg width="54" height="44" viewBox="0 0 54 44" fill="none" xmlns="http://www.w3.org/2000/svg">
<path d="M41.625 26.0263V32.4561C41.625 35.794 38.3496 38.5 34.3091 38.5C30.2686 38.5 26.9931 35.794 26.9931 32.4561L27.0069 12.0477C27.0069 8.43147 23.7314 5.5 19.6909 5.5C15.6504 5.5 12.375 8.43147 12.375 12.0477V26.0263" stroke="#8E382B" stroke-linecap="round" stroke-linejoin="round"/>
<path d="M48.375 28.4167L41.625 22.9167L34.875 28.4167" stroke="#8E382B" stroke-linecap="round" stroke-linejoin="round"/>
<path d="M48.375 9.83335C48.375 13.9166 41.625 17.4167 41.625 17.4167C41.625 17.4167 34.875 13.9166 34.875 9.83335C34.875 8.44095 35.5861 7.10558 36.8521 6.12102C38.1179 5.13645 39.8348 4.58333 41.625 4.58333C43.4152 4.58333 45.1321 5.13645 46.3979 6.12102C47.6639 7.10558 48.375 8.44095 48.375 9.83335Z" stroke="#8E382B" stroke-linecap="round" stroke-linejoin="round"/>
<path d="M19.125 31.8334C19.125 35.9166 12.375 39.4167 12.375 39.4167C12.375 39.4167 5.625 35.9166 5.625 31.8334C5.625 30.4409 6.33616 29.1056 7.60203 28.121C8.8679 27.1364 10.5848 26.5833 12.375 26.5833C14.1652 26.5833 15.8821 27.1364 17.1479 28.121C18.4139 29.1056 19.125 30.4409 19.125 31.8334Z" stroke="#8E382B" stroke-linecap="round" stroke-linejoin="round"/>
<path d="M41.625 11.9167C42.8676 11.9167 43.875 11.0959 43.875 10.0833C43.875 9.07081 42.8676 8.25 41.625 8.25C40.3824 8.25 39.375 9.07081 39.375 10.0833C39.375 11.0959 40.3824 11.9167 41.625 11.9167Z" fill="#8E382B"/>
<path d="M12.375 33.9167C13.6176 33.9167 14.625 33.0959 14.625 32.0833C14.625 31.0708 13.6176 30.25 12.375 30.25C11.1324 30.25 10.125 31.0708 10.125 32.0833C10.125 33.0959 11.1324 33.9167 12.375 33.9167Z" fill="#8E382B"/>
</svg>
